<svg height="502pt" viewBox="0 -113 502.624 502" width="502pt" xmlns="http://www.w3.org/2000/svg"><path d="m390.625 276.992188h-80v-32h80c44.109375 0 80-35.886719 80-80 0-44.113282-35.890625-80-80-80h-368v-32h368c61.757812 0 112 50.253906 112 112 0 61.742187-50.242188 112-112 112zm0 0" fill="#e64a19"/><g fill="#ff7043"><path d="m64 132.992188-64-64 64-64c6.238281-6.238282 16.382812-6.238282 22.625 0 6.238281 6.238281 6.238281 16.382812 0 22.625l-41.378906 41.375 41.378906 41.375c6.238281 6.242187 6.238281 16.386718 0 22.625-6.242188 6.238281-16.386719 6.238281-22.625 0zm0 0"/><path d="m246.625 244.992188h32v32h-32zm0 0"/><path d="m182.625 244.992188h32v32h-32zm0 0"/></g></svg>