<?xml version="1.0" encoding="iso-8859-1"?>
<!-- Generator: Adobe Illustrator 19.0.0, SVG Export Plug-In . SVG Version: 6.00 Build 0)  -->
<svg version="1.1" id="Capa_1" xmlns="http://www.w3.org/2000/svg" xmlns:xlink="http://www.w3.org/1999/xlink" x="0px" y="0px"
	 viewBox="0 0 512 512" style="enable-background:new 0 0 512 512;" xml:space="preserve">
<polygon style="fill:#0095FF;" points="339.434,167.069 339.434,344.931 512,413.148 512,98.852 "/>
<path style="fill:#73BCFF;" d="M315,76H45C20.099,76,0,96.099,0,121v270c0,24.899,20.099,45,45,45h270c24.901,0,45-20.101,45-45V121
	C360,96.099,339.901,76,315,76z"/>
<path style="fill:#3AAAFF;" d="M360,121v270c0,24.899-20.099,45-45,45H180V76h135C339.901,76,360,96.099,360,121z"/>
<path style="fill:#FAECD8;" d="M180,136c-66.301,0-120,53.699-120,120c0,66.299,53.699,120,120,120s120-53.701,120-120
	C300,189.699,246.301,136,180,136z"/>
<path style="fill:#F4D7AF;" d="M300,256c0,66.299-53.699,120-120,120V136C246.301,136,300,189.699,300,256z"/>
<path style="fill:#3AAAFF;" d="M180,196c-32.999,0-60,26.999-60,60c0,32.999,27.001,60,60,60s60-27.001,60-60
	C240,222.999,212.999,196,180,196z"/>
<path style="fill:#0095FF;" d="M240,256c0,32.999-27.001,60-60,60V196C212.999,196,240,222.999,240,256z"/>
<g>
</g>
<g>
</g>
<g>
</g>
<g>
</g>
<g>
</g>
<g>
</g>
<g>
</g>
<g>
</g>
<g>
</g>
<g>
</g>
<g>
</g>
<g>
</g>
<g>
</g>
<g>
</g>
<g>
</g>
</svg>
